<svg width="24" height="24" viewBox="0 0 24 24" fill="none" xmlns="http://www.w3.org/2000/svg">
<g clip-path="url(#clip0_118_22256)">
<path d="M23.8711 3C23.8711 3.375 23.8008 3.73828 23.6602 4.08984C23.5195 4.44141 23.3125 4.75391 23.0391 5.02734L19.0664 9L20.4727 10.4062C20.6836 10.6172 20.8438 10.8594 20.9531 11.1328C21.0625 11.4062 21.1211 11.6953 21.1289 12C21.1289 12.2969 21.0742 12.582 20.9648 12.8555C20.8555 13.1289 20.6914 13.375 20.4727 13.5938C20.2695 13.7969 20.0664 14.0078 19.8633 14.2266C19.6602 14.4453 19.4453 14.6445 19.2188 14.8242L10.4062 22.043L0.128906 10.043L1.33594 9.77344C1.98438 9.625 2.55859 9.48047 3.05859 9.33984C3.55859 9.19922 4.01172 9.03906 4.41797 8.85938C4.82422 8.67969 5.20312 8.48828 5.55469 8.28516C5.90625 8.08203 6.24609 7.82812 6.57422 7.52344C6.90234 7.21875 7.24609 6.89062 7.60547 6.53906C7.96484 6.1875 8.35156 5.75391 8.76562 5.23828C9.02344 4.94141 9.28906 4.65234 9.5625 4.37109C9.83594 4.08984 10.1172 3.80859 10.4062 3.52734C10.6172 3.31641 10.8594 3.15625 11.1328 3.04688C11.4062 2.9375 11.6953 2.87891 12 2.87109C12.2969 2.87109 12.582 2.92578 12.8555 3.03516C13.1289 3.14453 13.375 3.30859 13.5938 3.52734L15 4.93359L18.9727 0.960938C19.2461 0.6875 19.5586 0.480469 19.9102 0.339844C20.2617 0.199219 20.625 0.128906 21 0.128906C21.3984 0.128906 21.7695 0.203125 22.1133 0.351562C22.457 0.5 22.7617 0.703125 23.0273 0.960938C23.293 1.21875 23.5 1.52344 23.6484 1.875C23.7969 2.22656 23.8711 2.60156 23.8711 3ZM2.85938 10.9336L3.87891 12.1289L15.4453 15.9844L17.6367 14.1914L9.78516 6.35156C9.40234 6.79688 9.04688 7.19531 8.71875 7.54688C8.39062 7.89844 8.0625 8.21875 7.73438 8.50781C7.40625 8.79688 7.08203 9.05469 6.76172 9.28125C6.44141 9.50781 6.08203 9.71875 5.68359 9.91406C5.28516 10.1094 4.86328 10.2891 4.41797 10.4531C3.97266 10.6172 3.45312 10.7773 2.85938 10.9336ZM5.77734 14.3438L10.5938 19.957L14.0742 17.1094L5.77734 14.3438ZM22.3711 3C22.3711 2.8125 22.3359 2.63672 22.2656 2.47266C22.1953 2.30859 22.0977 2.16406 21.9727 2.03906C21.8477 1.91406 21.7031 1.81641 21.5391 1.74609C21.375 1.67578 21.1953 1.63672 21 1.62891C20.625 1.62891 20.3047 1.76172 20.0391 2.02734L15 7.06641L12.5273 4.59375C12.3789 4.44531 12.2031 4.37109 12 4.37109C11.875 4.37109 11.7578 4.40234 11.6484 4.46484C11.5391 4.52734 11.4336 4.60547 11.332 4.69922C11.2305 4.79297 11.1367 4.89062 11.0508 4.99219C10.9648 5.09375 10.8828 5.17969 10.8047 5.25L18.75 13.1953C18.8203 13.1172 18.9062 13.0352 19.0078 12.9492C19.1094 12.8633 19.207 12.7695 19.3008 12.668C19.3945 12.5664 19.4727 12.4609 19.5352 12.3516C19.5977 12.2422 19.6289 12.125 19.6289 12C19.6289 11.7969 19.5547 11.6211 19.4062 11.4727L16.9336 9L21.9727 3.96094C22.2383 3.69531 22.3711 3.375 22.3711 3Z" fill="#71D6C2"/>
</g>
<defs>
<clipPath id="clip0_118_22256">
<rect width="24" height="24" fill="white"/>
</clipPath>
</defs>
</svg>
